<?xml version="1.0" standalone="no"?>
<!DOCTYPE svg PUBLIC "-//W3C//DTD SVG 20010904//EN"
 "http://www.w3.org/TR/2001/REC-SVG-20010904/DTD/svg10.dtd">
<svg version="1.0" xmlns="http://www.w3.org/2000/svg"
 width="500.000000pt" height="300.000000pt" viewBox="0 0 500.000000 300.000000"
 preserveAspectRatio="xMidYMid meet">

<g transform="translate(0.000000,300.000000) scale(0.100000,-0.100000)"
fill="#000000" stroke="none">
<path d="M3972 2649 c-23 -12 -75 -57 -116 -100 -40 -44 -79 -79 -87 -79 -8 0
-23 -7 -34 -16 -19 -14 -24 -10 -102 73 -87 95 -96 97 -132 43 -9 -13 -11 -21
-4 -17 7 5 28 -6 50 -26 51 -45 133 -100 133 -89 0 13 -45 53 -53 47 -4 -3 -5
-2 -2 2 3 3 -7 22 -21 42 -14 20 4 5 40 -34 78 -82 188 -234 180 -247 -3 -5
-18 -1 -32 8 -40 26 -152 126 -152 136 0 4 12 8 28 8 19 0 37 -11 60 -37 25
-28 28 -30 13 -8 -43 63 -58 78 -65 66 -13 -20 -47 -1 -116 61 -59 53 -66 57
-77 41 -16 -20 -16 -76 -3 -162 9 -53 8 -67 -5 -87 -30 -46 -16 -109 34 -151
34 -29 62 -29 91 2 24 25 50 33 50 16 0 -6 -10 -17 -22 -27 -23 -16 -22 -16
15 -11 34 5 37 4 37 -19 0 -13 6 -24 13 -24 17 0 60 46 80 85 20 38 22 16 2
-33 -8 -20 -9 -29 -2 -19 33 51 36 53 37 31 0 -18 -135 -170 -331 -372 -56
-58 -109 -125 -109 -138 0 -3 -27 -45 -59 -92 -37 -54 -70 -117 -86 -165 -24
-72 -26 -81 -13 -120 18 -57 37 -57 72 -1 58 91 172 231 280 342 60 61 113
112 118 112 4 0 8 -60 8 -132 0 -237 35 -386 112 -472 22 -26 42 -45 44 -43 5
5 -25 99 -40 121 -22 34 -28 89 -35 317 -5 167 -9 220 -21 233 -12 16 -11 20
10 37 42 31 271 146 337 168 81 27 106 28 98 1 -7 -23 13 -28 33 -8 20 20 14
45 -15 68 -24 18 -36 21 -76 15 -95 -12 -258 -87 -408 -186 -132 -87 -322
-281 -414 -421 -38 -59 -71 -105 -74 -103 -2 3 12 38 33 80 99 201 521 679
632 715 19 6 34 16 34 21 0 25 -23 49 -46 49 -22 0 -25 4 -22 27 2 19 10 29
23 31 11 2 25 9 30 16 6 7 33 25 62 39 50 26 93 68 93 91 -1 6 -13 -3 -28 -20
-30 -33 -76 -67 -107 -77 l-20 -7 20 15 c38 30 85 77 85 86 0 18 -15 8 -60
-41 -29 -31 -55 -50 -68 -50 -22 0 -21 2 13 70 42 84 46 108 5 30 -38 -72 -39
-43 -1 35 37 75 55 101 46 65 -5 -19 -4 -21 4 -10 6 8 8 26 5 40 -5 20 -3 22
6 10 9 -12 10 -10 5 9 -5 17 -4 21 5 16 9 -5 10 -1 5 15 -5 16 -4 20 5 15 9
-5 10 -1 5 15 -5 16 -4 20 5 15 9 -5 10 -1 5 15 -5 15 -4 20 4 16 7 -4 11 1
11 13 0 12 0 24 1 28 1 15 -17 12 -59 -8z m36 -11 c-3 -7 -16 -44 -29 -83 -12
-38 -25 -62 -27 -52 -2 9 2 33 8 53 7 19 10 37 7 40 -2 2 -12 -20 -21 -51 -10
-30 -21 -57 -24 -59 -4 -2 -5 22 -4 54 3 43 9 63 23 76 16 14 22 15 28 5 6 -9
10 -7 14 8 3 12 11 21 17 21 7 0 10 -6 8 -12z m-393 -146 c-8 -8 -95 71 -95
86 0 10 18 -2 50 -33 27 -27 48 -51 45 -53z m290 11 c-8 -42 -25 -43 -26 0 -1
25 -2 27 -6 7 -13 -88 -15 -93 -24 -79 -6 9 -9 -8 -9 -51 l-1 -65 -24 65 c-23
61 -23 66 -8 89 15 24 17 24 23 6 6 -16 8 -13 11 15 3 25 11 38 27 45 12 5 22
17 22 26 0 8 3 19 8 23 10 11 15 -40 7 -81z m-337 -39 c34 -31 62 -62 62 -71
0 -18 -1 -18 -83 37 -61 40 -79 65 -60 83 11 12 16 9 81 -49z m362 -8 c0 -7
-12 -39 -26 -70 -16 -35 -23 -64 -19 -78 4 -16 3 -19 -3 -10 -7 10 -11 5 -18
-20 -7 -30 -9 -26 -12 32 -4 76 14 139 42 150 30 12 36 12 36 -4z m-155 -18
c-9 -28 -25 -47 -25 -30 0 7 -3 11 -7 10 -14 -5 -14 12 -1 27 21 23 40 19 33
-7z m-206 -33 c59 -43 80 -69 68 -81 -3 -3 -38 11 -79 33 -61 32 -74 43 -76
66 -5 39 15 35 87 -18z m240 -34 c15 -46 13 -73 -4 -36 -7 17 -17 29 -22 27
-11 -4 -16 25 -9 45 8 21 20 8 35 -36z m-219 -41 c30 -15 64 -38 75 -51 l20
-22 -20 7 c-11 4 -49 15 -85 23 -76 19 -76 19 -86 57 -6 26 -5 28 17 21 13 -4
49 -20 79 -35z m90 -8 c-6 -2 6 -13 27 -23 21 -10 52 -30 68 -45 l30 -25 -40
6 c-43 7 -109 60 -101 81 3 7 -2 18 -10 24 -8 7 -14 17 -14 23 0 6 12 0 26
-14 14 -13 20 -25 14 -27z m-5 -73 c78 -27 79 -28 40 -30 l-40 -2 45 -8 c34
-6 27 -7 -30 -3 -41 2 -84 6 -95 9 -16 5 -20 1 -21 -19 -1 -15 3 -26 10 -26 6
0 -4 -9 -22 -20 -36 -22 -77 -19 -68 5 2 7 -1 16 -9 18 -17 7 -17 76 0 94 16
15 29 18 20 4 -3 -6 5 -16 17 -22 l23 -13 -25 -7 c-23 -7 -12 -7 80 1 8 1 -6
8 -32 16 -30 9 -48 20 -48 30 0 19 44 12 155 -27z m28 -61 c40 2 34 -23 -13
-53 -54 -34 -62 -31 -20 6 20 18 26 26 13 20 -29 -15 -36 -14 -29 4 4 12 2 13
-12 6 -19 -10 -52 3 -52 20 0 7 15 8 43 3 23 -4 54 -7 70 -6z m124 -55 c-3
-10 -5 -4 -5 12 0 17 2 24 5 18 2 -7 2 -21 0 -30z m33 23 c0 -8 -4 -18 -10
-21 -5 -3 -10 3 -10 14 0 12 5 21 10 21 6 0 10 -6 10 -14z m-271 -27 c-26 -20
-49 -25 -49 -9 0 13 52 40 64 33 5 -3 -2 -14 -15 -24z m461 -187 c-115 -46
-287 -141 -355 -196 -27 -22 -95 -83 -149 -136 -55 -52 -90 -81 -78 -65 65 93
282 267 416 333 123 61 219 101 241 101 11 0 -23 -17 -75 -37z m-317 -330 c1
-51 -2 -88 -7 -85 -5 4 -6 -20 -2 -56 3 -33 8 -89 11 -123 4 -63 4 -62 -10 17
-11 59 -13 115 -8 213 3 73 8 131 10 128 2 -2 5 -44 6 -94z m-26 66 c-3 -8 -6
-5 -6 6 -1 11 2 17 5 13 3 -3 4 -12 1 -19z"/>
<path d="M3628 2223 c7 -3 16 -2 19 1 4 3 -2 6 -13 5 -11 0 -14 -3 -6 -6z"/>
<path d="M3518 2173 c7 -3 16 -2 19 1 4 3 -2 6 -13 5 -11 0 -14 -3 -6 -6z"/>
<path d="M3790 2280 c12 -16 24 -30 26 -30 3 0 -4 14 -16 30 -12 17 -24 30
-26 30 -3 0 4 -13 16 -30z"/>
<path d="M1373 2068 c-40 -43 -109 -150 -117 -184 -14 -54 11 -51 67 8 63 66
111 92 214 119 101 25 153 26 153 0 0 -48 -196 -183 -396 -273 -108 -49 -119
-57 -122 -82 -5 -39 16 -49 53 -26 72 44 219 66 231 35 12 -30 -116 -222 -154
-232 -17 -4 -20 -8 -11 -14 12 -7 -66 -48 -151 -81 -73 -28 -194 -111 -279
-193 -52 -49 -85 -76 -74 -60 37 54 176 179 243 220 36 22 105 56 155 77 49
20 83 37 75 37 -30 1 -219 -87 -289 -133 -81 -54 -211 -190 -241 -251 -36 -74
-22 -135 31 -135 43 0 104 34 194 108 6 5 16 11 22 13 51 18 301 261 358 347
13 20 42 55 65 77 44 42 95 138 105 195 7 42 -23 90 -56 90 -30 0 -17 13 61
59 38 23 70 46 70 51 0 6 4 10 10 10 5 0 34 19 65 42 83 62 107 121 63 152
-29 21 -144 21 -218 1 -71 -19 -71 -19 -60 9 5 15 5 27 -3 35 -18 18 -31 13
-64 -21z m97 -273 c0 -7 -98 -55 -112 -54 -7 0 12 13 42 28 58 30 70 34 70 26z
m-140 -409 c0 -8 -91 -111 -106 -119 -23 -13 -13 11 23 50 17 19 38 44 47 54
14 17 36 26 36 15z m-80 -36 c0 -16 -173 -183 -261 -252 -85 -66 -198 -138
-218 -138 -18 0 -13 13 22 66 40 61 128 150 193 195 48 33 242 138 257 139 4
0 7 -4 7 -10z m-190 -233 c-41 -39 -74 -76 -72 -80 1 -5 -2 -6 -7 -3 -4 3 -42
-17 -83 -44 -41 -28 -90 -53 -109 -56 -27 -5 -19 3 43 38 43 23 101 61 129 83
96 75 134 107 142 121 4 8 13 14 20 14 7 0 -22 -33 -63 -73z"/>
<path d="M2311 1882 c-22 -19 -37 -62 -23 -62 5 0 15 6 22 14 6 8 21 16 33 18
12 2 23 10 25 19 4 24 -34 31 -57 11z"/>
<path d="M2209 1763 c-19 -21 -45 -52 -59 -69 -25 -31 -161 -97 -229 -110
l-32 -7 36 66 c43 78 40 97 -15 122 -54 24 -72 14 -159 -90 -88 -104 -117
-150 -131 -206 -31 -124 81 -116 179 12 33 43 37 45 85 45 50 0 85 14 171 69
l30 20 -27 -38 c-16 -20 -39 -52 -53 -70 -29 -40 -33 -82 -7 -96 23 -12 62 5
224 101 l126 76 -39 -61 c-42 -64 -48 -97 -24 -117 21 -17 51 -2 169 85 90 66
111 75 82 33 -19 -26 -21 -42 -4 -32 7 4 8 3 4 -5 -4 -6 -12 -9 -17 -6 -12 8
-43 -60 -36 -79 4 -9 13 -19 21 -22 20 -8 426 246 426 266 0 19 -13 13 -222
-106 -145 -83 -184 -100 -158 -69 7 8 9 15 4 15 -4 0 1 10 12 23 11 12 29 36
39 52 10 17 26 36 36 42 18 14 79 101 79 115 0 4 -7 8 -15 8 -8 0 -19 9 -25
20 -22 42 -102 21 -200 -51 -25 -19 -60 -39 -78 -45 -18 -7 -88 -44 -155 -83
-191 -110 -232 -121 -167 -48 17 19 30 40 30 46 0 6 4 11 9 11 5 0 19 17 31
37 12 21 31 43 41 51 10 7 19 21 19 32 0 13 5 17 20 13 14 -4 21 1 26 21 3 14
10 26 15 26 15 0 10 28 -7 34 -9 3 -17 6 -19 6 -1 0 -18 -17 -36 -37z m441
-32 c0 -26 -58 -86 -155 -158 -120 -90 -152 -110 -161 -100 -8 7 39 69 91 122
88 88 225 171 225 136z m-746 -33 c-26 -45 -66 -98 -74 -98 -22 0 -8 36 27 72
36 37 62 51 47 26z m-128 -135 c6 -22 0 -33 -44 -75 -28 -26 -55 -48 -61 -48
-13 0 20 70 56 118 29 39 41 40 49 5z m22 -51 c-25 -33 -52 -43 -42 -17 4 8
12 15 20 15 8 0 14 7 14 16 0 8 5 12 10 9 8 -5 7 -12 -2 -23z"/>
<path d="M2870 1474 c-81 -7 -89 -11 -86 -42 l4 -27 78 5 c116 7 224 6 267 -3
37 -8 38 -7 27 13 -6 12 -26 28 -43 35 -35 14 -175 25 -247 19z"/>
<path d="M1737 1103 c-11 -10 -8 -113 3 -113 6 0 10 7 10 15 0 8 8 15 18 15
46 0 59 64 16 80 -30 12 -38 12 -47 3z m53 -28 c15 -18 5 -35 -21 -35 -14 0
-19 7 -19 25 0 28 21 33 40 10z"/>
<path d="M1907 1103 c-4 -3 -7 -31 -7 -62 1 -46 3 -53 13 -41 7 8 24 21 40 27
33 15 36 46 5 67 -24 17 -41 20 -51 9z m48 -38 c0 -11 -8 -21 -17 -23 -14 -3
-18 3 -18 23 0 20 4 26 18 23 9 -2 17 -12 17 -23z"/>
<path d="M2352 1094 c-42 -29 -18 -104 35 -104 11 0 26 6 32 14 9 11 4 13 -26
12 -35 -1 -38 1 -41 28 -4 35 13 48 53 40 20 -4 27 -3 20 4 -19 19 -51 22 -73
6z"/>
<path d="M2550 1103 c-40 -14 -53 -69 -22 -96 34 -31 83 -16 97 30 4 17 -1 29
-19 48 -26 26 -30 27 -56 18z m52 -38 c14 -32 -5 -57 -41 -53 -18 2 -27 10
-29 26 -7 50 49 72 70 27z"/>
<path d="M2717 1103 c-4 -3 -7 -30 -7 -60 0 -51 1 -53 28 -53 37 0 72 26 72
53 0 30 -11 44 -43 56 -33 13 -41 13 -50 4z m67 -35 c14 -23 -3 -52 -33 -56
-19 -3 -21 1 -21 38 0 37 2 41 21 38 12 -2 27 -11 33 -20z"/>
<path d="M3218 1096 c-29 -15 -36 -61 -12 -87 30 -34 84 -19 84 23 0 11 -7 18
-20 18 -11 0 -20 -4 -20 -10 0 -5 5 -10 10 -10 6 0 10 -5 10 -11 0 -6 -12 -9
-27 -7 -20 2 -29 9 -31 26 -5 35 16 54 51 46 18 -4 27 -2 23 4 -10 16 -43 20
-68 8z"/>
<path d="M1380 1045 c0 -35 4 -54 10 -50 6 3 10 15 10 26 0 14 7 19 25 19 18
0 25 -5 25 -19 0 -11 5 -23 10 -26 6 -4 10 15 10 49 0 31 -4 56 -10 56 -5 0
-10 -9 -10 -20 0 -15 -7 -20 -25 -20 -15 0 -25 6 -25 14 0 8 -4 18 -10 21 -6
4 -10 -15 -10 -50z"/>
<path d="M1571 1048 c-12 -28 -18 -54 -15 -57 4 -3 9 0 11 7 6 15 55 16 71 0
18 -18 15 3 -8 56 -10 25 -23 46 -28 46 -5 0 -19 -23 -31 -52z m49 -10 c0 -5
-7 -8 -15 -8 -15 0 -20 21 -8 33 7 7 23 -11 23 -25z"/>
<path d="M2069 1064 c12 -19 21 -45 21 -56 0 -27 10 -17 26 25 6 17 15 40 19
50 12 29 -11 19 -24 -10 l-13 -28 -14 28 c-8 15 -19 27 -25 27 -6 0 -2 -16 10
-36z"/>
<path d="M2890 1051 c0 -28 5 -53 10 -56 6 -4 10 15 10 49 0 31 -4 56 -10 56
-5 0 -10 -22 -10 -49z"/>
<path d="M3000 1051 c0 -28 5 -53 10 -56 6 -4 10 11 10 37 l0 43 40 -45 39
-45 1 58 c0 31 -4 57 -10 57 -5 0 -10 -15 -10 -32 l-1 -33 -29 33 c-16 17 -34
32 -40 32 -5 0 -10 -22 -10 -49z"/>
</g>
</svg>
